<svg width="124" height="39" viewBox="0 0 124 39" fill="none" xmlns="http://www.w3.org/2000/svg">
<path d="M0 18.5C0 8.28273 8.28273 0 18.5 0C28.7173 0 37 8.28273 37 18.5C37 28.7173 28.7173 37 18.5 37C8.28273 37 0 28.7173 0 18.5Z" fill="url(#paint0_linear_3_3009)"/>
<g filter="url(#filter0_d_3_3009)">
<path d="M26.4204 20.9463C26.4204 21.1872 26.4221 21.4286 26.4196 21.6696C26.418 21.8214 26.4217 21.974 26.4031 22.1242C26.3737 22.3598 26.1969 22.5074 26.0485 22.6692C25.2368 23.5518 24.4247 24.434 23.6123 25.3161C22.9378 26.0486 22.2621 26.7798 21.5876 27.5119C20.8591 28.3028 20.1313 29.0937 19.4027 29.8851C19.2556 30.0448 19.1113 30.2069 18.9605 30.3629C18.7766 30.5533 18.5823 30.5483 18.398 30.3496C18.1476 30.0792 17.9 29.8055 17.6512 29.5334C17.002 28.825 16.3532 28.1166 15.7035 27.4086C15.1931 26.8524 14.6819 26.297 14.1711 25.7413C13.6091 25.1299 13.0474 24.5182 12.4854 23.9068C12.0333 23.4149 11.5807 22.9234 11.1294 22.4307C10.9906 22.2789 10.9567 22.0885 10.9567 21.8923C10.955 20.5344 10.9559 19.1761 10.9559 17.8182C10.9559 17.3827 10.953 16.9472 10.9583 16.5121C10.9592 16.4288 10.9761 16.3371 11.0141 16.2645C11.0939 16.1115 11.2489 16.0692 11.4588 16.1492C11.9399 16.3325 12.4135 16.5358 12.89 16.7315C13.633 17.0364 14.3753 17.3433 15.1187 17.6465C15.8527 17.9455 16.5891 18.2392 17.3235 18.5378C18.0104 18.8173 18.6952 19.1014 19.3816 19.3814C20.1127 19.68 20.845 19.9757 21.5761 20.274C22.2311 20.5411 22.8849 20.8115 23.5403 21.0782C24.0334 21.2789 24.5256 21.4821 25.0223 21.6725C25.2682 21.7671 25.5282 21.8144 25.7914 21.748C26.1059 21.6688 26.2642 21.4357 26.3531 21.1425C26.3729 21.0773 26.3874 21.0101 26.4039 20.9442C26.4089 20.945 26.4142 20.9463 26.4192 20.9471L26.4204 20.9463Z" fill="white"/>
<path d="M26.4068 17.2628C26.4068 17.8987 26.4275 18.5353 26.3998 19.1699C26.3803 19.6232 26.3498 20.084 26.1369 20.5054C25.9625 20.8505 25.6038 21.0164 25.2137 20.9251C24.7281 20.8111 24.2884 20.5817 23.8301 20.4005C22.9878 20.067 22.1514 19.7182 21.3124 19.3756C20.6454 19.1031 19.9784 18.8294 19.3109 18.5577C18.0005 18.0243 16.6892 17.4934 15.3791 16.9592C14.1261 16.4483 12.8738 15.9352 11.6212 15.4226C11.2625 15.2757 11.1728 14.8958 11.4336 14.608C12.0696 13.9058 12.7094 13.2065 13.347 12.5056C14.038 11.7458 14.7282 10.9851 15.4196 10.2261C16.3548 9.19957 17.2913 8.17429 18.2269 7.14818C18.2732 7.09717 18.3158 7.04201 18.3658 6.99514C18.5456 6.8255 18.8605 6.83463 19.0279 7.01671C19.6267 7.6687 20.223 8.32319 20.8214 8.9756C21.3806 9.58529 21.941 10.1933 22.5001 10.8026C23.1854 11.5487 23.8693 12.2961 24.5545 13.0419C24.7735 13.2804 24.9975 13.5143 25.2166 13.7532C25.5559 14.124 25.8956 14.4943 26.2291 14.8701C26.3543 15.0111 26.4064 15.1878 26.4072 15.3757C26.4093 16.0045 26.408 16.6337 26.408 17.2624H26.4064L26.4068 17.2628Z" fill="white"/>
</g>
<path d="M49.9067 24.5112H47.5067V13.7912H50.0667L53.9067 18.8632L55.3787 21.1192H55.5547L55.4427 18.9592V13.7912H57.8427V24.5112H55.2827L51.3307 19.3912L49.9707 17.3752H49.8107L49.9067 19.3432V24.5112ZM61.5161 15.6792H59.1161V13.7912H61.5161V15.6792ZM61.5161 24.5112H59.1161V16.4952H61.5161V24.5112ZM67.0443 24.6712C64.2923 24.6712 62.5323 23.0392 62.5323 20.5112C62.5323 17.9512 64.2923 16.3352 67.0443 16.3352C69.6203 16.3352 71.3803 17.7112 71.3803 19.7912V20.0152H68.9963V19.8872C68.9963 18.8632 68.2443 18.4952 66.9963 18.4952C65.5723 18.4952 64.9163 19.0232 64.9163 20.5112C64.9163 21.9832 65.5723 22.5112 66.9963 22.5112C68.2443 22.5112 68.9963 22.1432 68.9963 21.1192V20.9912H71.3803V21.2152C71.3803 23.2792 69.6203 24.6712 67.0443 24.6712ZM74.8129 24.5112H72.4129V13.7912H74.8129V19.4712H76.6369L78.6849 16.4952H81.5329L78.6049 20.3672L81.485 24.5112H78.6529L76.6529 21.6152H74.8129V24.5112ZM86.3721 24.6712C83.7001 24.6712 81.8761 23.3592 81.8761 20.5112C81.8761 17.9512 83.6841 16.3352 86.3241 16.3352C88.9481 16.3352 90.6921 17.7112 90.6921 20.2232C90.6921 20.5112 90.6601 20.7192 90.6281 20.9912H84.1001C84.1641 22.2232 84.7401 22.7512 86.2921 22.7512C87.7161 22.7512 88.2121 22.3832 88.2121 21.6952V21.5352H90.6121V21.7112C90.6121 23.4552 88.9161 24.6712 86.3721 24.6712ZM86.2761 18.2072C84.8521 18.2072 84.2441 18.6872 84.1321 19.7272H88.3881C88.3241 18.6712 87.6841 18.2072 86.2761 18.2072ZM94.1098 24.5112H91.7098V13.7912H94.1098V24.5112ZM97.7661 15.6792H95.3661V13.7912H97.7661V15.6792ZM97.7661 24.5112H95.3661V16.4952H97.7661V24.5112ZM102.334 24.6712C100.078 24.6712 99.0063 23.2792 99.0063 21.4872V16.4952H101.406V20.6872C101.406 21.9832 101.95 22.5272 103.47 22.5272C105.038 22.5272 105.598 21.9192 105.598 20.5592V16.4952H107.998V24.5112H105.758V22.0632H105.63C105.422 23.4072 104.446 24.6712 102.334 24.6712ZM111.625 24.5112H109.225V16.4952H111.449V18.9272H111.577C111.769 17.5832 112.569 16.3352 114.585 16.3352C116.441 16.3352 117.385 17.4712 117.561 18.9592H117.705C117.897 17.5992 118.713 16.3352 120.777 16.3352C122.841 16.3352 123.849 17.6952 123.849 19.5192V24.5112H121.449V20.3192C121.449 18.9912 120.985 18.4952 119.609 18.4952C118.153 18.4952 117.737 19.0712 117.737 20.4632V24.5112H115.337V20.3192C115.337 18.9912 114.873 18.4952 113.497 18.4952C112.041 18.4952 111.625 19.0712 111.625 20.4632V24.5112Z" fill="white"/>
<defs>
<filter id="filter0_d_3_3009" x="6.95508" y="6.87378" width="23.4658" height="31.6284" filterUnits="userSpaceOnUse" color-interpolation-filters="sRGB">
<feFlood flood-opacity="0" result="BackgroundImageFix"/>
<feColorMatrix in="SourceAlpha" type="matrix" values="0 0 0 0 0 0 0 0 0 0 0 0 0 0 0 0 0 0 127 0" result="hardAlpha"/>
<feOffset dy="4"/>
<feGaussianBlur stdDeviation="2"/>
<feComposite in2="hardAlpha" operator="out"/>
<feColorMatrix type="matrix" values="0 0 0 0 0 0 0 0 0 0 0 0 0 0 0 0 0 0 0.25 0"/>
<feBlend mode="normal" in2="BackgroundImageFix" result="effect1_dropShadow_3_3009"/>
<feBlend mode="normal" in="SourceGraphic" in2="effect1_dropShadow_3_3009" result="shape"/>
</filter>
<linearGradient id="paint0_linear_3_3009" x1="43.1667" y1="41.625" x2="-17.151" y2="-3.32684e-07" gradientUnits="userSpaceOnUse">
<stop stop-color="#9C37D2"/>
<stop offset="1" stop-color="#4800FF"/>
</linearGradient>
</defs>
</svg>
